<?xml version="1.0" encoding="utf-8"?>

<!DOCTYPE svg PUBLIC "-//W3C//DTD SVG 1.1//EN" "http://www.w3.org/Graphics/SVG/1.1/DTD/svg11.dtd">
<svg version="1.1" id="Layer_1" xmlns="http://www.w3.org/2000/svg" xmlns:xlink="http://www.w3.org/1999/xlink" x="0px" y="0px"
	 viewBox="0 0 1310.745 1763.841" enable-background="new 0 0 1310.745 1763.841" xml:space="preserve">
<path d="M1245.07,799.675c-2.937,29.205-30.1,61.226-43.55,87.386c-10.957,21.312-19.679,43.341-28.848,65.495
	c-75.246,181.819-99.226,171.626-243.6,406.695c-20.968,34.14-52.263,47.479-81.642,71.683c-3.727,3.07-7.927,4.322-10.157,8.654
	c-1.997,3.879-0.794,20.504-2.072,25.535c-7.556,29.727-48.623,99.49-62.564,196.303c-2.499,17.354,1.045,15.392-10.232,19.293
	c0,0-418.402,0-418.405,0c-40.976,0-25.849,17.808-29.595-83.727c-1.26-34.163,1.376-68.281,3.099-102.359
	c0.623-12.32,6.185-33.985,2.319-44.552c-3.937-10.761-17.867-21.984-24.927-31.821c-63.978-89.159-95.505-229.124-95.286-340.7
	c0.075-38.316-7.925-79.329-11.188-117.504c-3.23-37.785-0.859-74.456-14.044-110.969c-12.306-34.079-34.129-64.521-47.747-98.391
	c-12.29-30.568-20.222-62.086-29.898-93.478c-18.627-60.431-44.996-126.752-32.709-190.613c4.697-24.414,7.886-42.804,35.573-48.145
	c67.614-13.043,65.894,69.197,69.766,93.376c0.828,5.169,81.297,266.612,117.007,283.026c12.73,5.851,32.597-4.411,38.343-17.682
	c19.685-45.47-43.614-166.231-35.555-310.628c3.449-61.796-0.459-128.254,10.268-188.835c6.326-35.728,1.005-76.172,18.516-109.406
	c17.192-32.628,66.675-57.964,97.719-29.294c47.396,43.769-3.413,144.832-1.667,170.909c2.318,34.625,15.503,39.106,10.989,161.097
	c-1.311,35.421,10.456,67.266,15.972,102.4c5.217,33.231,5.056,69.467,22.162,99.464c7.229,12.676,21.91,31.396,37.267,18.095
	c23.524-20.375,10.179-137.266,9.943-154.216c-0.535-38.303,3.154-76.067,3.345-114.214c0.177-35.409-7.037-71.183-3.778-106.534
	c0-0.002,16.734-184.907,16.734-184.907c7.855-63.96,108.424-85.571,130.807,60.596c26.809,175.069-9.94,190.34,7.363,431.091
	c1.756,24.428-9.545,92.192,18.977,107.018c55.332,28.762,57.146-154.419,59.323-183.574c5.045-67.571,21.682-131.91,20.485-200.212
	c-1.01-57.627-4.513-116.636,16.423-171.311c24.966-65.2,113.251-50.013,125.236,15.761c5.74,31.498,3.078,68.211,5.288,100.415
	c6.276,91.476-19.854,180.58-24.737,295.844c-2.504,59.111,1.703,113.145-11.702,170.687
	c-15.275,65.571-4.108,352.885,113.894,174.919c16.236-24.486,39.237-43.612,55.298-67.53
	c25.774-38.383,28.966-83.848,62.407-119.332c22.312-23.675,55.529-39.844,88.279-38.534c28.708,1.148,53.346,3.098,54.907,36.03
	C1249.601,758.244,1251.995,785.337,1245.07,799.675C1243.877,811.535,1248.394,792.792,1245.07,799.675z"/>
</svg>
