<svg width="640" height="480" xmlns="http://www.w3.org/2000/svg" xmlns:svg="http://www.w3.org/2000/svg">
 <!-- Created with SVG-edit - https://github.com/SVG-Edit/svgedit-->
 <g class="layer">
  <title>Layer 1</title>
  <rect fill="#ffaa56" height="192" id="svg_1" stroke="#000000" stroke-width="5" width="315" x="167.5" y="139.5"/>
  <ellipse cx="321.5" cy="84.5" fill="#00ff7f" id="svg_2" rx="122" ry="24" stroke="#000000" stroke-width="5"/>
  <path d="m555.5,103.5l22.5,78.5c0,0 15.5,76.5 -11.5,68.5c-27,-8 -10,22 -35,-27c-25,-49 -43,-27 -25,-80c18,-53 -14,-49 25,-55c39,-6 65,20 64.5,19.5c-0.5,-0.5 24.5,26.5 20.5,18.5c-4,-8 -6,-2 3,41c9,43 0,46 -12,46c-12,0 48,102 -18,98c-66,-4 -50,-48 -50.5,-48.5" fill="#ffaa56" id="svg_3" stroke="#000000" stroke-width="5"/>
 </g>
</svg>