<?xml version="1.0" encoding="UTF-8" standalone="no"?>
<svg
   xmlns:dc="http://purl.org/dc/elements/1.1/"
   xmlns:cc="http://creativecommons.org/ns#"
   xmlns:rdf="http://www.w3.org/1999/02/22-rdf-syntax-ns#"
   xmlns:svg="http://www.w3.org/2000/svg"
   xmlns="http://www.w3.org/2000/svg"
   id="svg15"
   version="1.1"
   preserveAspectRatio="xMidYMid meet"
   viewBox="0 0 105.82083 144.34808"
   height="144.34808pt"
   width="105.82083pt">
  <defs
     id="defs19" />
  <metadata
     id="metadata2">
    <rdf:rdf>
      <rdf:description
         dc:language="en"
         dc:format="image/svg+xml"
         dc:date="2015-05-11"
         dc:publisher="Hiox"
         dc:title="nicolas cage stencil">
        <dc:creator>
          <rdf:bag>
            <rdf:li>svgimages.com</rdf:li>
          </rdf:bag>
        </dc:creator>
      </rdf:description>
    </rdf:rdf>
    <rdf:RDF>
      <cc:Work
         rdf:about="">
        <dc:format>image/svg+xml</dc:format>
        <dc:type
           rdf:resource="http://purl.org/dc/dcmitype/StillImage" />
      </cc:Work>
    </rdf:RDF>
  </metadata>
  <g
     style="fill:#17110e;stroke:none"
     id="g8"
     transform="matrix(0.1,0,0,-0.1,-56.179166,256.34809)">
    <path
       style="stroke-width:20"
       class="node"
       id="node26"
       d="m 945,2555 c -246,-50 -365,-201 -365,-464 0,-58 -5,-130 -12,-161 -10,-50 -9,-64 11,-129 12,-40 36,-95 54,-124 23,-37 32,-64 32,-96 0,-45 19,-67 31,-36 11,28 24,-4 24,-60 0,-52 34,-193 51,-210 11,-11 11,-2 0,47 -6,26 -6,36 2,31 6,-4 8,0 4,10 -3,9 -2,19 3,22 6,4 10,2 10,-3 0,-14 32,-24 42,-14 5,5 2,14 -7,22 -8,7 -15,16 -15,21 0,4 12,-3 26,-16 15,-14 30,-25 35,-25 4,0 5,-10 2,-22 -4,-19 -3,-20 6,-8 7,10 11,11 11,3 0,-7 6,-13 13,-13 7,0 22,-8 33,-17 10,-10 28,-19 39,-21 58,-9 123,-22 143,-28 17,-5 22,-2 22,12 0,16 1,16 19,-2 10,-10 14,-20 10,-22 -5,-2 -9,-8 -9,-14 0,-6 -8,-17 -17,-24 -20,-14 -18,-19 14,-28 15,-5 27,-1 41,14 17,18 21,19 31,6 10,-12 10,-20 -3,-38 -28,-40 -21,-48 43,-48 h 59 l -14,45 c -7,25 -17,52 -22,61 -6,11 -4,33 6,63 8,25 25,82 37,126 33,118 85,225 110,226 19,0 18,1 -2,9 -13,5 -21,15 -19,22 3,7 7,26 10,41 4,18 16,31 33,38 20,8 24,12 14,18 -14,9 -13,25 6,101 l 9,35 14,-64 c 10,-47 11,-74 3,-103 -14,-50 1,-59 16,-9 15,53 14,188 -4,307 -8,54 -19,148 -25,208 l -11,108 -46,54 c -53,61 -66,67 -258,118 -172,46 -171,45 -240,31 z m 229,-177 c 14,-6 28,-19 31,-30 4,-10 15,-18 26,-18 10,0 29,-12 42,-26 21,-25 63,-49 79,-46 11,3 41,-46 34,-56 -3,-5 1,-34 8,-66 9,-36 10,-54 3,-47 -17,17 -39,-7 -26,-30 8,-16 4,-15 -27,6 -20,14 -51,26 -68,27 -132,8 -146,5 -146,-25 0,-21 4,-22 97,-23 65,-1 99,-6 101,-13 4,-13 51,-36 65,-33 31,7 33,-148 3,-207 -11,-21 -19,-62 -21,-111 -3,-85 -16,-114 -57,-131 -15,-6 -40,-28 -55,-48 -15,-20 -30,-38 -33,-41 -4,-3 -9,-13 -13,-22 -8,-23 -81,-68 -109,-68 -101,-2 -110,1 -144,37 -33,35 -38,45 -35,71 1,6 -3,12 -9,12 -5,0 -10,5 -10,12 0,6 -11,26 -26,45 -14,18 -30,48 -36,66 -13,43 -38,97 -43,97 -5,0 3,-76 10,-101 3,-9 2,-26 -3,-38 -8,-22 -8,-22 -26,-2 -25,27 -26,99 -2,143 17,31 18,41 7,79 -23,82 -21,100 17,137 27,28 36,32 44,21 7,-11 11,-11 15,-1 2,6 17,12 32,12 15,0 33,9 41,20 14,20 37,29 25,10 -4,-6 5,-10 19,-10 34,0 33,4 -8,30 -24,14 -43,19 -60,14 -17,-4 -26,-2 -26,6 0,6 5,8 10,5 6,-3 10,-1 10,5 0,8 -9,10 -26,6 -18,-5 -24,-3 -18,5 9,15 139,5 160,-12 15,-12 20,-54 6,-45 -5,3 -9,-11 -10,-31 -1,-19 -7,-42 -14,-51 -10,-11 -10,-16 -1,-19 7,-3 2,-14 -13,-30 -30,-32 -32,-79 -4,-88 11,-3 20,-11 20,-17 0,-5 7,-7 16,-4 8,3 12,2 9,-4 -3,-6 -1,-10 4,-10 6,0 11,3 11,8 0,4 30,8 67,10 64,3 93,13 93,34 0,5 -5,6 -12,2 -6,-4 -25,-8 -42,-9 -17,-1 -40,-6 -52,-9 -14,-5 -27,-2 -39,10 -11,12 -29,17 -47,15 -26,-2 -29,0 -26,21 4,24 8,25 43,12 16,-6 18,-5 8,7 -18,18 -16,40 4,54 27,20 24,113 -5,150 -12,15 -22,33 -22,40 0,15 -44,25 -109,25 -68,0 -90,8 -88,33 1,12 10,31 20,42 10,11 24,34 32,50 17,40 79,98 107,100 14,1 25,10 29,26 4,13 7,20 8,16 1,-4 9,-3 19,2 23,14 105,14 136,-1 z m 243,-360 c -3,-7 -5,-2 -5,12 0,14 2,19 5,13 2,-7 2,-19 0,-25 z M 643,1863 c -3,-7 0,-13 7,-13 9,0 11,-17 5,-66 -5,-47 -4,-64 4,-60 7,5 11,-3 11,-20 0,-22 2,-25 15,-14 13,10 15,9 15,-9 0,-23 -1,-24 -25,-15 -23,9 -43,53 -50,110 -7,58 3,133 15,114 5,-7 6,-19 3,-27 z" />
    <path
       style="stroke-width:20"
       class="node"
       id="node29"
       d="m 1189,2024 c -13,-16 -12,-17 6,-11 17,6 17,4 -2,-9 -13,-9 -23,-20 -23,-25 0,-14 38,-11 43,4 3,7 6,5 6,-5 1,-11 6,-15 16,-12 8,4 22,1 29,-6 21,-17 90,-9 94,11 4,23 -52,56 -109,64 -36,5 -48,3 -60,-11 z m 116,-44 c 3,-5 -1,-10 -10,-10 -9,0 -13,5 -10,10 3,6 8,10 10,10 2,0 7,-4 10,-10 z" />
    <path
       style="stroke-width:20"
       class="node"
       id="node31"
       d="m 950,1682 c 0,-7 -3,-11 -8,-8 -4,2 -12,-7 -19,-20 -9,-19 -8,-24 2,-24 8,0 17,-5 21,-12 4,-7 3,-8 -4,-4 -7,4 -12,3 -12,-3 0,-22 76,-71 128,-83 48,-10 58,-10 90,8 26,14 31,20 18,22 -9,2 -22,0 -29,-5 -23,-18 -72,-13 -112,12 -33,20 -36,24 -17,25 12,0 22,5 22,12 0,6 -3,8 -7,5 -8,-8 -44,23 -38,32 4,8 125,5 173,-4 28,-5 31,-9 22,-21 -16,-18 0,-18 34,0 23,12 24,15 11,26 -8,7 -41,14 -73,16 -121,7 -187,17 -194,28 -6,8 -8,7 -8,-2 z" />
    <path
       style="stroke-width:20"
       class="node"
       id="node37"
       d="m 1430,1236 c 0,-4 16,-31 35,-61 l 35,-55 h 60 c 33,0 60,4 60,8 0,5 -35,29 -78,55 -85,50 -112,63 -112,53 z" />
  </g>
  <g
     style="fill:#ffffff;stroke:none"
     id="g13"
     transform="matrix(0.1,0,0,-0.1,-56.179166,256.34809)">
    <path
       style="stroke-width:20"
       class="node"
       id="node61"
       d="m 1038,2379 c -10,-5 -18,-6 -19,-2 -1,4 -4,-3 -8,-16 -4,-16 -15,-25 -29,-26 -28,-2 -90,-60 -107,-100 -8,-16 -22,-39 -32,-50 -10,-11 -19,-30 -20,-42 -2,-25 20,-33 88,-33 65,0 109,-10 109,-25 0,-7 10,-25 22,-40 29,-37 32,-130 5,-150 -20,-14 -22,-36 -4,-54 10,-12 8,-13 -8,-7 -35,13 -39,12 -43,-12 -3,-21 0,-23 26,-21 18,2 36,-3 47,-15 12,-12 25,-15 39,-10 12,3 35,8 52,9 17,1 36,5 42,9 7,4 12,3 12,-2 0,-21 -29,-31 -93,-34 -37,-2 -67,-6 -67,-10 0,-5 -5,-8 -11,-8 -5,0 -7,4 -4,10 3,6 -1,7 -9,4 -9,-3 -16,-1 -16,4 0,6 -9,14 -20,17 -28,9 -26,56 4,88 15,16 20,27 13,30 -9,3 -9,8 1,19 7,9 13,32 14,51 1,20 5,34 10,31 14,-9 9,33 -6,45 -21,17 -151,27 -160,12 -6,-8 0,-10 18,-5 17,4 26,2 26,-6 0,-6 -4,-8 -10,-5 -5,3 -10,1 -10,-5 0,-8 9,-10 26,-6 17,5 36,0 60,-14 41,-26 42,-30 8,-30 -14,0 -23,4 -19,10 12,19 -11,10 -25,-10 -8,-11 -26,-20 -41,-20 -15,0 -30,-6 -32,-12 -4,-10 -8,-10 -15,1 -8,11 -17,7 -44,-21 -38,-37 -40,-55 -17,-137 11,-38 10,-48 -7,-79 -24,-44 -23,-116 2,-143 18,-20 18,-20 26,2 5,12 6,29 3,38 -7,25 -15,101 -10,101 5,0 30,-54 43,-97 6,-18 22,-48 36,-66 15,-19 26,-39 26,-45 0,-7 5,-12 10,-12 6,0 10,-6 9,-12 -3,-26 2,-36 35,-71 34,-36 43,-39 144,-37 28,0 101,45 109,68 4,9 9,19 13,22 3,3 18,21 33,41 15,20 40,42 55,48 41,17 54,46 57,131 2,49 10,90 21,111 30,59 28,214 -3,207 -14,-3 -61,20 -65,33 -2,7 -36,12 -101,13 -93,1 -97,2 -97,23 0,30 14,33 146,25 17,-1 48,-13 68,-27 31,-21 35,-22 27,-6 -13,23 9,47 26,30 7,-7 6,11 -3,47 -7,32 -11,61 -8,66 7,10 -23,59 -34,56 -16,-3 -58,21 -79,46 -13,14 -32,26 -42,26 -11,0 -22,8 -26,18 -3,11 -17,24 -31,30 -31,15 -113,15 -136,1 z m 12,-294 c 0,-8 -4,-15 -10,-15 -5,0 -10,7 -10,15 0,8 5,15 10,15 6,0 10,-7 10,-15 z m -76,-45 c 14,-5 26,-14 26,-20 0,-6 -12,-4 -30,5 -44,23 -42,33 4,15 z m 354,-32 c 44,-27 39,-52 -11,-56 -21,-2 -45,2 -53,8 -7,7 -21,10 -29,6 -10,-3 -15,1 -16,12 0,10 -3,12 -6,5 -5,-15 -43,-18 -43,-4 0,5 10,16 23,25 19,13 19,15 2,9 -18,-6 -19,-5 -6,11 12,14 24,16 60,11 25,-4 61,-16 79,-27 z m -191,-60 c -3,-8 -6,-5 -6,6 -1,11 2,17 5,13 3,-3 4,-12 1,-19 z m -107,-282 c 36,-4 91,-8 122,-10 32,-2 65,-9 73,-16 13,-11 12,-14 -11,-26 -34,-18 -50,-18 -34,0 9,12 6,16 -22,21 -48,9 -169,12 -173,4 -6,-9 30,-40 38,-32 4,3 7,1 7,-5 0,-7 -10,-12 -22,-12 -19,-1 -16,-5 17,-25 40,-25 89,-30 112,-12 7,5 20,7 29,5 13,-2 8,-8 -18,-22 -32,-18 -42,-18 -90,-8 -52,12 -128,61 -128,83 0,6 5,7 12,3 7,-4 8,-3 4,4 -4,7 -13,12 -21,12 -10,0 -11,5 -2,24 7,13 15,22 19,20 5,-3 8,1 8,8 0,9 2,10 8,2 4,-7 36,-15 72,-18 z m 67,-72 c -3,-3 -12,-4 -19,-1 -8,3 -5,6 6,6 11,1 17,-2 13,-5 z m 40,0 c -3,-3 -12,-4 -19,-1 -8,3 -5,6 6,6 11,1 17,-2 13,-5 z" />
    <path
       style="stroke-width:20"
       class="node"
       id="node62"
       d="m 1285,1980 c -3,-5 1,-10 10,-10 9,0 13,5 10,10 -3,6 -8,10 -10,10 -2,0 -7,-4 -10,-10 z" />
    <path
       style="stroke-width:20"
       class="node"
       id="node64"
       d="m 626,1864 c -14,-79 13,-184 49,-198 24,-9 25,-8 25,15 0,18 -2,19 -15,9 -13,-11 -15,-8 -15,14 0,17 -4,25 -11,20 -8,-4 -9,13 -4,60 6,49 4,66 -5,66 -7,0 -10,6 -7,13 3,8 2,20 -3,27 -5,8 -10,-1 -14,-26 z" />
  </g>
</svg>
